<svg width="304" height="810" viewBox="0 0 304 810" fill="none" xmlns="http://www.w3.org/2000/svg">
<path opacity="0.56" d="M241.5 301.565C241.5 343.812 222.322 393.623 189.695 444.606C157.075 495.579 111.043 547.675 57.4099 594.483C-49.8738 688.113 -187.474 760.5 -308.857 760.5C-369.44 760.5 -423.45 727.686 -468.681 676.225C-513.912 624.764 -550.322 554.699 -575.69 480.325C-601.057 405.953 -615.372 327.302 -616.436 258.688C-617.5 190.048 -605.301 131.554 -577.748 97.3985C-564.287 80.711 -538.892 69.4404 -507.168 62.0525C-475.466 54.67 -437.545 51.1868 -399.147 49.9964C-322.353 47.6157 -243.732 54.4074 -209.304 57.4635C-107.288 66.5192 5.466 91.9211 92.6995 132.906C179.976 173.91 241.5 230.408 241.5 301.565Z" stroke="#E20026"/>
<path opacity="0.32" d="M267.5 294.883C267.5 339.868 247.112 392.904 212.433 447.183C177.761 501.452 128.833 556.916 71.8262 606.749C-42.2044 706.431 -188.462 783.5 -317.486 783.5C-381.89 783.5 -439.302 748.56 -487.381 693.769C-535.458 638.979 -574.159 564.384 -601.122 485.202C-628.085 406.022 -643.301 322.287 -644.432 249.236C-645.563 176.159 -632.597 113.876 -603.305 77.5047C-588.99 59.7305 -561.991 47.7298 -528.27 39.8643C-494.573 32.0041 -454.266 28.2958 -413.453 27.0285C-331.83 24.4939 -248.265 31.7246 -211.672 34.9781C-103.241 44.6191 16.6055 71.6627 109.327 115.297C202.091 158.952 267.5 219.107 267.5 294.883Z" stroke="#E20026"/>
<path opacity="0.18" d="M303.5 287.329C303.5 335.41 281.68 392.089 244.568 450.095C207.463 508.09 155.103 567.361 94.098 620.615C-27.9288 727.137 -184.447 809.5 -322.528 809.5C-391.46 809.5 -452.906 772.155 -504.359 713.602C-555.81 655.049 -597.225 575.332 -626.08 490.715C-654.934 406.1 -671.217 316.617 -672.427 238.551C-673.638 160.458 -659.763 93.8932 -628.41 55.0168C-613.084 36.0137 -584.182 23.1876 -548.096 14.7821C-512.033 6.38191 -468.898 2.41903 -425.223 1.06474C-337.876 -1.64376 -248.451 6.08314 -209.293 9.55985C-93.2579 19.8625 34.9935 48.7621 134.219 95.3921C233.489 142.042 303.5 206.333 303.5 287.329Z" stroke="#E20026"/>
</svg>
