<svg width="286" height="24" viewBox="0 0 286 24" fill="none" xmlns="http://www.w3.org/2000/svg">
<path d="M2.99976 8.84936C22.3118 8.84936 41.5264 6.17713 60.8091 4.85352C82.304 3.37806 104.022 4.35404 125.523 4.35404C157.951 4.35404 190.376 3.83657 222.796 3.71185C241.915 3.6383 299.27 3.71185 280.152 3.71185C270.911 3.71185 261.644 3.06966 252.381 3.06966C238.699 3.06966 225.011 2.89132 211.33 3.10534C197.157 3.32705 182.989 4.99623 168.817 4.99623C149.09 4.99623 129.33 4.61977 109.622 5.99519C95.7982 6.95995 81.2817 8.04731 67.6635 11.7392C63.7827 12.7913 59.824 13.4841 55.9706 14.6291C52.6897 15.6039 49.4373 17.2133 46.1173 17.84C43.9152 18.2557 41.5764 18.7165 39.3889 19.2671C38.0897 19.5941 34.2393 19.8599 35.508 20.3731C38.943 21.7625 44.0191 20.4088 47.5538 20.4088C59.9455 20.4088 72.2823 18.3062 84.6233 16.8767C94.5942 15.7217 104.55 15.1389 114.536 14.3436C126.871 13.3613 139.196 11.1107 151.555 10.8116C174.734 10.2506 197.95 10.7759 221.133 10.7759C228.038 10.7759 234.943 10.7759 241.847 10.7759C243.532 10.7759 246.033 10.0404 247.492 11.4181" stroke="#E20026" stroke-width="5" stroke-linecap="round"/>
<path d="M2.99976 8.84936C22.3118 8.84936 41.5264 6.17713 60.8091 4.85352C82.304 3.37806 104.022 4.35404 125.523 4.35404C157.951 4.35404 190.376 3.83657 222.796 3.71185C241.915 3.6383 299.27 3.71185 280.152 3.71185C270.911 3.71185 261.644 3.06966 252.381 3.06966C238.699 3.06966 225.011 2.89132 211.33 3.10534C197.157 3.32705 182.989 4.99623 168.817 4.99623C149.09 4.99623 129.33 4.61977 109.622 5.99519C95.7982 6.95995 81.2817 8.04731 67.6635 11.7392C63.7827 12.7913 59.824 13.4841 55.9706 14.6291C52.6897 15.6039 49.4373 17.2133 46.1173 17.84C43.9152 18.2557 41.5764 18.7165 39.3889 19.2671C38.0897 19.5941 34.2393 19.8599 35.508 20.3731C38.943 21.7625 44.0191 20.4088 47.5538 20.4088C59.9455 20.4088 72.2823 18.3062 84.6233 16.8767C94.5942 15.7217 104.55 15.1389 114.536 14.3436C126.871 13.3613 139.196 11.1107 151.555 10.8116C174.734 10.2506 197.95 10.7759 221.133 10.7759C228.038 10.7759 234.943 10.7759 241.847 10.7759C243.532 10.7759 246.033 10.0404 247.492 11.4181" stroke="url(#paint0_linear_6507_55)" stroke-width="5" stroke-linecap="round"/>
<defs>
<linearGradient id="paint0_linear_6507_55" x1="2.99976" y1="12" x2="284" y2="12" gradientUnits="userSpaceOnUse">
<stop stop-opacity="0.18"/>
<stop offset="1" stop-color="white" stop-opacity="0"/>
</linearGradient>
</defs>
</svg>
